G75*
%MOIN*%
%OFA0B0*%
%FSLAX25Y25*%
%IPPOS*%
%LPD*%
%AMOC8*
5,1,8,0,0,1.08239X$1,22.5*
%
%ADD10C,0.00600*%
%ADD11C,0.00400*%
D10*
X0058609Y0029965D02*
X0058609Y0036370D01*
X0055406Y0036370D01*
X0054339Y0035303D01*
X0054339Y0033168D01*
X0055406Y0032100D01*
X0058609Y0032100D01*
X0060778Y0032100D02*
X0063980Y0034235D01*
X0060778Y0036370D01*
X0063980Y0038505D02*
X0063980Y0032100D01*
X0066155Y0032100D02*
X0069358Y0032100D01*
X0070426Y0033168D01*
X0070426Y0035303D01*
X0069358Y0036370D01*
X0066155Y0036370D01*
X0072601Y0035303D02*
X0072601Y0032100D01*
X0075804Y0032100D01*
X0076871Y0033168D01*
X0075804Y0034235D01*
X0072601Y0034235D01*
X0072601Y0035303D02*
X0073669Y0036370D01*
X0075804Y0036370D01*
X0079046Y0036370D02*
X0080114Y0035303D01*
X0083317Y0035303D01*
X0080114Y0035303D02*
X0079046Y0034235D01*
X0079046Y0033168D01*
X0080114Y0032100D01*
X0083317Y0032100D01*
X0083317Y0038505D01*
X0080114Y0038505D01*
X0079046Y0037438D01*
X0079046Y0036370D01*
X0078496Y0041200D02*
X0076361Y0045470D01*
X0074186Y0044403D02*
X0073118Y0045470D01*
X0070983Y0045470D01*
X0069915Y0044403D01*
X0069915Y0043335D01*
X0074186Y0043335D01*
X0074186Y0042268D02*
X0074186Y0044403D01*
X0074186Y0042268D02*
X0073118Y0041200D01*
X0070983Y0041200D01*
X0067740Y0041200D02*
X0067740Y0045470D01*
X0067740Y0043335D02*
X0065605Y0045470D01*
X0064537Y0045470D01*
X0062369Y0044403D02*
X0061301Y0045470D01*
X0058099Y0045470D01*
X0054856Y0045470D02*
X0052721Y0045470D01*
X0051653Y0044403D01*
X0051653Y0041200D01*
X0054856Y0041200D01*
X0055923Y0042268D01*
X0054856Y0043335D01*
X0051653Y0043335D01*
X0049478Y0041200D02*
X0047343Y0041200D01*
X0048410Y0041200D02*
X0048410Y0047605D01*
X0049478Y0047605D01*
X0047880Y0048165D02*
X0046812Y0048165D01*
X0045745Y0049232D01*
X0045745Y0054570D01*
X0048948Y0054570D01*
X0050015Y0053503D01*
X0050015Y0051368D01*
X0048948Y0050300D01*
X0045745Y0050300D01*
X0043570Y0051368D02*
X0042502Y0050300D01*
X0039299Y0050300D01*
X0039299Y0049232D02*
X0040367Y0048165D01*
X0041434Y0048165D01*
X0039299Y0049232D02*
X0039299Y0054570D01*
X0043570Y0054570D02*
X0043570Y0051368D01*
X0052190Y0051368D02*
X0052190Y0053503D01*
X0053258Y0054570D01*
X0055393Y0054570D01*
X0056461Y0053503D01*
X0056461Y0051368D01*
X0055393Y0050300D01*
X0053258Y0050300D01*
X0052190Y0051368D01*
X0058622Y0050300D02*
X0060758Y0050300D01*
X0059690Y0050300D02*
X0059690Y0056705D01*
X0060758Y0056705D01*
X0062933Y0053503D02*
X0064000Y0054570D01*
X0067203Y0054570D01*
X0069378Y0053503D02*
X0070446Y0054570D01*
X0072581Y0054570D01*
X0073649Y0053503D01*
X0073649Y0051368D01*
X0072581Y0050300D01*
X0070446Y0050300D01*
X0069378Y0051368D01*
X0069378Y0053503D01*
X0067203Y0056705D02*
X0067203Y0050300D01*
X0064000Y0050300D01*
X0062933Y0051368D01*
X0062933Y0053503D01*
X0075824Y0053503D02*
X0075824Y0050300D01*
X0080094Y0050300D02*
X0080094Y0054570D01*
X0076891Y0054570D01*
X0075824Y0053503D01*
X0082269Y0053503D02*
X0082269Y0050300D01*
X0083861Y0048673D02*
X0083861Y0047605D01*
X0083861Y0045470D02*
X0083861Y0041200D01*
X0084928Y0041200D02*
X0082793Y0041200D01*
X0078496Y0041200D02*
X0080631Y0045470D01*
X0083861Y0045470D02*
X0084928Y0045470D01*
X0087103Y0044403D02*
X0087103Y0041200D01*
X0091374Y0041200D02*
X0091374Y0045470D01*
X0088171Y0045470D01*
X0087103Y0044403D01*
X0093549Y0042268D02*
X0093549Y0047605D01*
X0091917Y0050300D02*
X0088715Y0050300D01*
X0086540Y0050300D02*
X0086540Y0056705D01*
X0085472Y0054570D02*
X0083337Y0054570D01*
X0082269Y0053503D01*
X0085472Y0054570D02*
X0086540Y0053503D01*
X0088715Y0054570D02*
X0091917Y0054570D01*
X0092985Y0053503D01*
X0092985Y0051368D01*
X0091917Y0050300D01*
X0095160Y0052435D02*
X0099431Y0052435D01*
X0099431Y0051368D02*
X0099431Y0053503D01*
X0098363Y0054570D01*
X0096228Y0054570D01*
X0095160Y0053503D01*
X0095160Y0052435D01*
X0096228Y0050300D02*
X0098363Y0050300D01*
X0099431Y0051368D01*
X0103741Y0050300D02*
X0103741Y0056705D01*
X0105876Y0056705D02*
X0101606Y0056705D01*
X0097819Y0047605D02*
X0097819Y0042268D01*
X0096752Y0041200D01*
X0094616Y0041200D01*
X0093549Y0042268D01*
X0094073Y0038505D02*
X0094073Y0032100D01*
X0100518Y0035303D02*
X0102653Y0035303D01*
X0102653Y0038505D02*
X0102653Y0032100D01*
X0106964Y0032100D02*
X0106964Y0038505D01*
X0109099Y0038505D02*
X0104828Y0038505D01*
X0102653Y0038505D02*
X0098383Y0038505D01*
X0096208Y0038505D02*
X0091937Y0038505D01*
X0062369Y0041200D02*
X0059166Y0041200D01*
X0058099Y0042268D01*
X0059166Y0043335D01*
X0061301Y0043335D01*
X0062369Y0044403D01*
X0051096Y0036370D02*
X0048961Y0036370D01*
X0047893Y0035303D01*
X0047893Y0032100D01*
X0051096Y0032100D01*
X0052164Y0033168D01*
X0051096Y0034235D01*
X0047893Y0034235D01*
X0045718Y0033168D02*
X0044651Y0032100D01*
X0041448Y0032100D01*
X0039273Y0032100D02*
X0039273Y0038505D01*
X0041448Y0036370D02*
X0044651Y0036370D01*
X0045718Y0035303D01*
X0045718Y0033168D01*
X0039273Y0034235D02*
X0036070Y0036370D01*
X0039273Y0034235D02*
X0036070Y0032100D01*
D11*
X0038777Y0067872D02*
X0040329Y0067872D01*
X0040846Y0068389D01*
X0040846Y0070458D01*
X0040329Y0070975D01*
X0038777Y0070975D01*
X0038777Y0067872D01*
X0042000Y0068907D02*
X0043034Y0067872D01*
X0043034Y0070975D01*
X0042000Y0070975D02*
X0044068Y0070975D01*
X0048777Y0070975D02*
X0050329Y0070975D01*
X0050846Y0070458D01*
X0050846Y0068389D01*
X0050329Y0067872D01*
X0048777Y0067872D01*
X0048777Y0070975D01*
X0052000Y0070975D02*
X0054068Y0068907D01*
X0054068Y0068389D01*
X0053551Y0067872D01*
X0052517Y0067872D01*
X0052000Y0068389D01*
X0057166Y0068389D02*
X0057166Y0070458D01*
X0057683Y0070975D01*
X0058717Y0070975D01*
X0059234Y0070458D01*
X0059234Y0069424D01*
X0058200Y0069424D01*
X0057166Y0068389D02*
X0057683Y0067872D01*
X0058717Y0067872D01*
X0059234Y0068389D01*
X0060389Y0067872D02*
X0062457Y0070975D01*
X0062457Y0067872D01*
X0063611Y0067872D02*
X0065163Y0067872D01*
X0065680Y0068389D01*
X0065680Y0070458D01*
X0065163Y0070975D01*
X0063611Y0070975D01*
X0063611Y0067872D01*
X0060389Y0067872D02*
X0060389Y0070975D01*
X0067166Y0069941D02*
X0068200Y0070975D01*
X0069234Y0069941D01*
X0069234Y0067872D01*
X0070389Y0068389D02*
X0070389Y0070458D01*
X0070906Y0070975D01*
X0071940Y0070975D01*
X0072457Y0070458D01*
X0073611Y0070458D02*
X0074128Y0070975D01*
X0075163Y0070975D01*
X0075680Y0070458D01*
X0077166Y0070458D02*
X0077683Y0070975D01*
X0078717Y0070975D01*
X0079234Y0070458D01*
X0079234Y0069941D01*
X0078717Y0069424D01*
X0077683Y0069424D01*
X0077166Y0068907D01*
X0077166Y0068389D01*
X0077683Y0067872D01*
X0078717Y0067872D01*
X0079234Y0068389D01*
X0080389Y0067872D02*
X0081940Y0067872D01*
X0082457Y0068389D01*
X0082457Y0070458D01*
X0081940Y0070975D01*
X0080389Y0070975D01*
X0080389Y0067872D01*
X0083611Y0068907D02*
X0084646Y0067872D01*
X0085680Y0068907D01*
X0085680Y0070975D01*
X0087166Y0070458D02*
X0087683Y0070975D01*
X0088717Y0070975D01*
X0089234Y0070458D01*
X0089234Y0069941D01*
X0088717Y0069424D01*
X0087683Y0069424D01*
X0087166Y0068907D01*
X0087166Y0068389D01*
X0087683Y0067872D01*
X0088717Y0067872D01*
X0089234Y0068389D01*
X0090389Y0068389D02*
X0090389Y0070458D01*
X0090906Y0070975D01*
X0091940Y0070975D01*
X0092457Y0070458D01*
X0093611Y0070975D02*
X0095680Y0070975D01*
X0097342Y0070458D02*
X0097859Y0070975D01*
X0098893Y0070975D01*
X0099410Y0070458D01*
X0099410Y0067872D01*
X0100564Y0067872D02*
X0102116Y0067872D01*
X0102633Y0068389D01*
X0102633Y0069424D01*
X0102116Y0069941D01*
X0100564Y0069941D01*
X0100564Y0070975D02*
X0100564Y0067872D01*
X0103787Y0067872D02*
X0105338Y0067872D01*
X0105856Y0068389D01*
X0105856Y0070458D01*
X0105338Y0070975D01*
X0103787Y0070975D01*
X0103787Y0067872D01*
X0107010Y0067872D02*
X0108044Y0067872D01*
X0107527Y0067872D02*
X0107527Y0070975D01*
X0107010Y0070975D02*
X0108044Y0070975D01*
X0097342Y0070458D02*
X0097342Y0067872D01*
X0093611Y0067872D02*
X0093611Y0070975D01*
X0092457Y0068389D02*
X0091940Y0067872D01*
X0090906Y0067872D01*
X0090389Y0068389D01*
X0085680Y0069424D02*
X0083611Y0069424D01*
X0083611Y0068907D02*
X0083611Y0070975D01*
X0075680Y0068389D02*
X0075163Y0067872D01*
X0074128Y0067872D01*
X0073611Y0068389D01*
X0073611Y0070458D01*
X0072457Y0068389D02*
X0071940Y0067872D01*
X0070906Y0067872D01*
X0070389Y0068389D01*
X0067166Y0067872D02*
X0067166Y0069941D01*
X0054068Y0070975D02*
X0052000Y0070975D01*
M02*
