G75*
%MOIN*%
%OFA0B0*%
%FSLAX25Y25*%
%IPPOS*%
%LPD*%
%AMOC8*
5,1,8,0,0,1.08239X$1,22.5*
%
%ADD10C,0.06600*%
%ADD11C,0.13843*%
%ADD12C,0.01200*%
%ADD13C,0.03569*%
%ADD14C,0.02400*%
D10*
X0011800Y0012250D03*
X0021800Y0013850D03*
X0031800Y0012250D03*
X0041800Y0013850D03*
X0051800Y0012250D03*
X0061800Y0013850D03*
X0071800Y0012250D03*
X0081800Y0013850D03*
X0091800Y0012250D03*
X0101800Y0013850D03*
X0111800Y0012250D03*
X0121800Y0013850D03*
X0106800Y0022250D03*
X0096800Y0023850D03*
X0086800Y0022250D03*
X0076800Y0023850D03*
X0066800Y0022250D03*
X0056800Y0023850D03*
X0046800Y0022250D03*
X0036800Y0023850D03*
X0041800Y0061800D03*
X0051800Y0061800D03*
X0061800Y0061800D03*
X0071800Y0061800D03*
X0081800Y0061800D03*
X0091800Y0061800D03*
X0101800Y0061800D03*
X0116800Y0023850D03*
D11*
X0128050Y0059925D03*
X0015550Y0059925D03*
D12*
X0026800Y0048675D02*
X0028675Y0048675D01*
X0041800Y0061800D01*
X0051800Y0061800D02*
X0051800Y0058050D01*
X0042425Y0048675D01*
X0034300Y0048675D01*
X0041175Y0041800D01*
X0054300Y0041800D01*
X0058050Y0038050D02*
X0032218Y0038050D01*
X0026800Y0043468D01*
X0026800Y0048675D01*
X0056800Y0046800D02*
X0063050Y0040550D01*
X0063050Y0035550D01*
X0056800Y0029300D01*
X0056800Y0023850D01*
X0056800Y0006800D01*
X0059300Y0004300D01*
X0088050Y0004300D01*
X0091800Y0008050D01*
X0091800Y0012250D01*
X0086800Y0010550D02*
X0083050Y0006800D01*
X0065550Y0006800D01*
X0061800Y0010550D01*
X0061800Y0013850D01*
X0066800Y0022250D02*
X0066800Y0049300D01*
X0074300Y0043050D02*
X0079300Y0043050D01*
X0081800Y0040550D01*
X0081800Y0013850D01*
X0086800Y0014925D02*
X0095725Y0023850D01*
X0096800Y0023850D01*
X0086800Y0014925D02*
X0086800Y0010550D01*
X0095550Y0048050D02*
X0114925Y0048050D01*
X0116175Y0049300D01*
X0111800Y0051800D02*
X0101800Y0051800D01*
X0091800Y0061800D01*
X0081800Y0061800D02*
X0095550Y0048050D01*
D13*
X0111800Y0051800D03*
X0116175Y0049300D03*
X0100550Y0031800D03*
X0074300Y0043050D03*
X0066800Y0049300D03*
X0056800Y0046800D03*
X0050550Y0046800D03*
X0054300Y0041800D03*
X0058050Y0038050D03*
X0034300Y0048675D03*
X0026800Y0048675D03*
D14*
X0050550Y0046800D02*
X0050550Y0050550D01*
X0055550Y0055550D01*
X0069300Y0055550D01*
X0071800Y0058050D01*
X0086800Y0042425D01*
X0119300Y0042425D01*
X0124300Y0037425D01*
X0124300Y0031800D01*
X0124300Y0016350D01*
X0121800Y0013850D01*
X0124300Y0031800D02*
X0100550Y0031800D01*
X0071800Y0058050D02*
X0071800Y0061800D01*
M02*
