G75*
%MOIN*%
%OFA0B0*%
%FSLAX25Y25*%
%IPPOS*%
%LPD*%
%AMOC8*
5,1,8,0,0,1.08239X$1,22.5*
%
%ADD10R,0.03150X0.04724*%
%ADD11R,0.04724X0.03150*%
%ADD12R,0.02362X0.04724*%
%ADD13R,0.07087X0.03937*%
%ADD14R,0.05512X0.01575*%
D10*
X0088882Y0031175D03*
X0095968Y0031175D03*
X0110132Y0031800D03*
X0117218Y0031800D03*
X0123882Y0031800D03*
X0130968Y0031800D03*
D11*
X0101800Y0037632D03*
X0101800Y0044718D03*
X0101800Y0048882D03*
X0101800Y0055968D03*
X0044300Y0046593D03*
X0034300Y0043468D03*
X0026800Y0043468D03*
X0019300Y0043468D03*
X0011800Y0043468D03*
X0011800Y0036382D03*
X0019300Y0036382D03*
X0026800Y0036382D03*
X0034300Y0036382D03*
X0044300Y0039507D03*
D12*
X0051800Y0032026D03*
X0056800Y0032026D03*
X0061800Y0032026D03*
X0066800Y0032026D03*
X0071800Y0032026D03*
X0076800Y0032026D03*
X0081800Y0032026D03*
X0081800Y0054074D03*
X0076800Y0054074D03*
X0071800Y0054074D03*
X0066800Y0054074D03*
X0061800Y0054074D03*
X0056800Y0054074D03*
X0051800Y0054074D03*
D13*
X0093050Y0047971D03*
X0093050Y0038129D03*
D14*
X0112514Y0038586D03*
X0112514Y0041145D03*
X0112514Y0043705D03*
X0112514Y0046264D03*
X0129836Y0046264D03*
X0129836Y0043705D03*
X0129836Y0041145D03*
X0129836Y0038586D03*
M02*
