G75*
%MOIN*%
%OFA0B0*%
%FSLAX25Y25*%
%IPPOS*%
%LPD*%
%AMOC8*
5,1,8,0,0,1.08239X$1,22.5*
%
%ADD10C,0.00400*%
%ADD11C,0.00600*%
%ADD12C,0.00800*%
%ADD13C,0.01720*%
%ADD14C,0.02400*%
D10*
X0009811Y0005375D02*
X0009811Y0008478D01*
X0008777Y0008478D02*
X0010846Y0008478D01*
X0012000Y0008478D02*
X0012000Y0005375D01*
X0014068Y0005375D01*
X0013034Y0006926D02*
X0012000Y0006926D01*
X0012000Y0008478D02*
X0014068Y0008478D01*
X0018777Y0008478D02*
X0018777Y0005375D01*
X0020329Y0005375D01*
X0020846Y0005892D01*
X0020846Y0006409D01*
X0020329Y0006926D01*
X0018777Y0006926D01*
X0020329Y0006926D02*
X0020846Y0007443D01*
X0020846Y0007961D01*
X0020329Y0008478D01*
X0018777Y0008478D01*
X0022000Y0008478D02*
X0022000Y0005375D01*
X0024068Y0005375D01*
X0032683Y0016625D02*
X0033717Y0016625D01*
X0034234Y0017142D01*
X0034234Y0018176D01*
X0033200Y0018176D01*
X0032166Y0017142D02*
X0032166Y0019211D01*
X0032683Y0019728D01*
X0033717Y0019728D01*
X0034234Y0019211D01*
X0035389Y0019728D02*
X0037457Y0016625D01*
X0037457Y0019728D01*
X0038611Y0019728D02*
X0040163Y0019728D01*
X0040680Y0019211D01*
X0040680Y0017142D01*
X0040163Y0016625D01*
X0038611Y0016625D01*
X0038611Y0019728D01*
X0035389Y0019728D02*
X0035389Y0016625D01*
X0032683Y0016625D02*
X0032166Y0017142D01*
X0031277Y0029750D02*
X0033346Y0029750D01*
X0034500Y0029750D02*
X0036568Y0029750D01*
X0035534Y0029750D02*
X0035534Y0032853D01*
X0034500Y0031818D01*
X0031277Y0032853D02*
X0031277Y0029750D01*
X0029068Y0029750D02*
X0027000Y0029750D01*
X0029068Y0031818D01*
X0029068Y0032336D01*
X0028551Y0032853D01*
X0027517Y0032853D01*
X0027000Y0032336D01*
X0023777Y0032853D02*
X0023777Y0029750D01*
X0025846Y0029750D01*
X0021568Y0030267D02*
X0021051Y0029750D01*
X0020017Y0029750D01*
X0019500Y0030267D01*
X0018346Y0029750D02*
X0016277Y0029750D01*
X0016277Y0032853D01*
X0014068Y0031301D02*
X0012000Y0031301D01*
X0013551Y0032853D01*
X0013551Y0029750D01*
X0010846Y0029750D02*
X0008777Y0029750D01*
X0008777Y0032853D01*
X0019500Y0032336D02*
X0020017Y0032853D01*
X0021051Y0032853D01*
X0021568Y0032336D01*
X0021568Y0031818D01*
X0021051Y0031301D01*
X0021568Y0030784D01*
X0021568Y0030267D01*
X0021051Y0031301D02*
X0020534Y0031301D01*
X0040566Y0067872D02*
X0040566Y0070975D01*
X0041600Y0070975D02*
X0039532Y0070975D01*
X0042754Y0070458D02*
X0042754Y0068389D01*
X0043271Y0067872D01*
X0044823Y0067872D01*
X0044823Y0070975D01*
X0043271Y0070975D01*
X0042754Y0070458D01*
X0041600Y0068907D02*
X0040566Y0067872D01*
X0049532Y0068389D02*
X0050049Y0067872D01*
X0051083Y0067872D01*
X0051600Y0068389D01*
X0052754Y0068389D02*
X0053271Y0067872D01*
X0054823Y0067872D01*
X0054823Y0070975D01*
X0053271Y0070975D01*
X0052754Y0070458D01*
X0052754Y0068389D01*
X0051600Y0070975D02*
X0049532Y0068907D01*
X0049532Y0068389D01*
X0049532Y0070975D02*
X0051600Y0070975D01*
X0057920Y0070458D02*
X0057920Y0068389D01*
X0058437Y0067872D01*
X0059989Y0067872D01*
X0059989Y0070975D01*
X0058437Y0070975D01*
X0057920Y0070458D01*
X0061143Y0070975D02*
X0061143Y0067872D01*
X0063211Y0067872D02*
X0061143Y0070975D01*
X0063211Y0070975D02*
X0063211Y0067872D01*
X0064366Y0068389D02*
X0064883Y0067872D01*
X0065917Y0067872D01*
X0066434Y0068389D01*
X0066434Y0070458D01*
X0065917Y0070975D01*
X0064883Y0070975D01*
X0064366Y0070458D01*
X0064366Y0069424D01*
X0065400Y0069424D01*
X0067920Y0070458D02*
X0068437Y0070975D01*
X0069472Y0070975D01*
X0069989Y0070458D01*
X0069989Y0068389D01*
X0069472Y0067872D01*
X0068437Y0067872D01*
X0067920Y0068389D01*
X0071143Y0068389D02*
X0071660Y0067872D01*
X0072694Y0067872D01*
X0073211Y0068389D01*
X0073211Y0070458D01*
X0072694Y0070975D01*
X0071660Y0070975D01*
X0071143Y0070458D01*
X0074366Y0069941D02*
X0074366Y0067872D01*
X0076434Y0067872D02*
X0076434Y0069941D01*
X0075400Y0070975D01*
X0074366Y0069941D01*
X0077920Y0069424D02*
X0079989Y0069424D01*
X0079989Y0068907D02*
X0078954Y0067872D01*
X0077920Y0068907D01*
X0077920Y0070975D01*
X0079989Y0070975D02*
X0079989Y0068907D01*
X0081143Y0068389D02*
X0081660Y0067872D01*
X0083211Y0067872D01*
X0083211Y0070975D01*
X0081660Y0070975D01*
X0081143Y0070458D01*
X0081143Y0068389D01*
X0084366Y0068389D02*
X0084883Y0067872D01*
X0085917Y0067872D01*
X0086434Y0068389D01*
X0086434Y0068907D01*
X0085917Y0069424D01*
X0084883Y0069424D01*
X0084366Y0069941D01*
X0084366Y0070458D01*
X0084883Y0070975D01*
X0085917Y0070975D01*
X0086434Y0070458D01*
X0087920Y0070975D02*
X0089989Y0070975D01*
X0089989Y0067872D01*
X0091143Y0068389D02*
X0091660Y0067872D01*
X0092694Y0067872D01*
X0093211Y0068389D01*
X0093211Y0070458D01*
X0092694Y0070975D01*
X0091660Y0070975D01*
X0091143Y0070458D01*
X0094366Y0070458D02*
X0094366Y0069941D01*
X0094883Y0069424D01*
X0095917Y0069424D01*
X0096434Y0068907D01*
X0096434Y0068389D01*
X0095917Y0067872D01*
X0094883Y0067872D01*
X0094366Y0068389D01*
X0094366Y0070458D02*
X0094883Y0070975D01*
X0095917Y0070975D01*
X0096434Y0070458D01*
X0098056Y0070975D02*
X0099090Y0070975D01*
X0098573Y0070975D02*
X0098573Y0067872D01*
X0099090Y0067872D02*
X0098056Y0067872D01*
X0100244Y0068389D02*
X0100762Y0067872D01*
X0102313Y0067872D01*
X0102313Y0070975D01*
X0100762Y0070975D01*
X0100244Y0070458D01*
X0100244Y0068389D01*
X0103467Y0068389D02*
X0103984Y0067872D01*
X0105536Y0067872D01*
X0105536Y0070975D01*
X0106690Y0070458D02*
X0106690Y0067872D01*
X0108758Y0067872D02*
X0108758Y0070458D01*
X0108241Y0070975D01*
X0107207Y0070975D01*
X0106690Y0070458D01*
X0105536Y0069941D02*
X0103984Y0069941D01*
X0103467Y0069424D01*
X0103467Y0068389D01*
X0109460Y0019728D02*
X0108943Y0019211D01*
X0108943Y0018693D01*
X0109460Y0018176D01*
X0110494Y0018176D01*
X0111012Y0017659D01*
X0111012Y0017142D01*
X0110494Y0016625D01*
X0109460Y0016625D01*
X0108943Y0017142D01*
X0111012Y0019211D02*
X0110494Y0019728D01*
X0109460Y0019728D01*
X0112166Y0019728D02*
X0113717Y0019728D01*
X0114234Y0019211D01*
X0114234Y0017142D01*
X0113717Y0016625D01*
X0112166Y0016625D01*
X0112166Y0019728D01*
X0115389Y0018693D02*
X0116423Y0019728D01*
X0117457Y0018693D01*
X0117457Y0016625D01*
X0115389Y0016625D02*
X0115389Y0018693D01*
X0115389Y0018176D02*
X0117457Y0018176D01*
X0118611Y0018176D02*
X0120680Y0018176D01*
X0121834Y0017142D02*
X0121834Y0019211D01*
X0122351Y0019728D01*
X0123385Y0019728D01*
X0123903Y0019211D01*
X0123903Y0017142D01*
X0123385Y0016625D01*
X0122351Y0016625D01*
X0121834Y0017142D01*
X0121940Y0009728D02*
X0120906Y0009728D01*
X0120389Y0009211D01*
X0120389Y0007142D01*
X0120906Y0006625D01*
X0121940Y0006625D01*
X0122457Y0007142D01*
X0123611Y0007142D02*
X0124128Y0006625D01*
X0125163Y0006625D01*
X0125680Y0007142D01*
X0123611Y0007142D02*
X0123611Y0009211D01*
X0124128Y0009728D01*
X0125163Y0009728D01*
X0125680Y0009211D01*
X0122457Y0009211D02*
X0121940Y0009728D01*
X0119234Y0009728D02*
X0119234Y0007659D01*
X0118200Y0006625D01*
X0117166Y0007659D01*
X0117166Y0009728D01*
X0105680Y0009211D02*
X0105680Y0007142D01*
X0105163Y0006625D01*
X0103611Y0006625D01*
X0103611Y0009728D01*
X0105163Y0009728D01*
X0105680Y0009211D01*
X0102457Y0009728D02*
X0102457Y0006625D01*
X0100389Y0009728D01*
X0100389Y0006625D01*
X0099234Y0007142D02*
X0099234Y0008176D01*
X0098200Y0008176D01*
X0097166Y0007142D02*
X0097683Y0006625D01*
X0098717Y0006625D01*
X0099234Y0007142D01*
X0097166Y0007142D02*
X0097166Y0009211D01*
X0097683Y0009728D01*
X0098717Y0009728D01*
X0099234Y0009211D01*
D11*
X0093606Y0028813D02*
X0091244Y0028813D01*
X0091244Y0033537D02*
X0093606Y0033537D01*
X0099438Y0039994D02*
X0099438Y0042356D01*
X0104162Y0042356D02*
X0104162Y0039994D01*
X0112494Y0034162D02*
X0114856Y0034162D01*
X0114856Y0029438D02*
X0112494Y0029438D01*
X0126244Y0029438D02*
X0128606Y0029438D01*
X0128606Y0034162D02*
X0126244Y0034162D01*
X0104162Y0051244D02*
X0104162Y0053606D01*
X0099438Y0053606D02*
X0099438Y0051244D01*
X0046662Y0044231D02*
X0046662Y0041869D01*
X0041938Y0041869D02*
X0041938Y0044231D01*
X0036662Y0041106D02*
X0036662Y0038744D01*
X0031938Y0038744D02*
X0031938Y0041106D01*
X0029162Y0041106D02*
X0029162Y0038744D01*
X0024438Y0038744D02*
X0024438Y0041106D01*
X0021662Y0041106D02*
X0021662Y0038744D01*
X0016938Y0038744D02*
X0016938Y0041106D01*
X0014162Y0041106D02*
X0014162Y0038744D01*
X0009438Y0038744D02*
X0009438Y0041106D01*
D12*
X0007676Y0059925D02*
X0007678Y0060118D01*
X0007685Y0060311D01*
X0007697Y0060504D01*
X0007714Y0060697D01*
X0007735Y0060889D01*
X0007761Y0061080D01*
X0007792Y0061271D01*
X0007827Y0061461D01*
X0007867Y0061650D01*
X0007912Y0061838D01*
X0007961Y0062025D01*
X0008015Y0062211D01*
X0008073Y0062395D01*
X0008136Y0062578D01*
X0008204Y0062759D01*
X0008275Y0062938D01*
X0008352Y0063116D01*
X0008432Y0063292D01*
X0008517Y0063465D01*
X0008606Y0063637D01*
X0008699Y0063806D01*
X0008796Y0063973D01*
X0008898Y0064138D01*
X0009003Y0064300D01*
X0009112Y0064459D01*
X0009226Y0064616D01*
X0009343Y0064769D01*
X0009463Y0064920D01*
X0009588Y0065068D01*
X0009716Y0065213D01*
X0009847Y0065354D01*
X0009982Y0065493D01*
X0010121Y0065628D01*
X0010262Y0065759D01*
X0010407Y0065887D01*
X0010555Y0066012D01*
X0010706Y0066132D01*
X0010859Y0066249D01*
X0011016Y0066363D01*
X0011175Y0066472D01*
X0011337Y0066577D01*
X0011502Y0066679D01*
X0011669Y0066776D01*
X0011838Y0066869D01*
X0012010Y0066958D01*
X0012183Y0067043D01*
X0012359Y0067123D01*
X0012537Y0067200D01*
X0012716Y0067271D01*
X0012897Y0067339D01*
X0013080Y0067402D01*
X0013264Y0067460D01*
X0013450Y0067514D01*
X0013637Y0067563D01*
X0013825Y0067608D01*
X0014014Y0067648D01*
X0014204Y0067683D01*
X0014395Y0067714D01*
X0014586Y0067740D01*
X0014778Y0067761D01*
X0014971Y0067778D01*
X0015164Y0067790D01*
X0015357Y0067797D01*
X0015550Y0067799D01*
X0015743Y0067797D01*
X0015936Y0067790D01*
X0016129Y0067778D01*
X0016322Y0067761D01*
X0016514Y0067740D01*
X0016705Y0067714D01*
X0016896Y0067683D01*
X0017086Y0067648D01*
X0017275Y0067608D01*
X0017463Y0067563D01*
X0017650Y0067514D01*
X0017836Y0067460D01*
X0018020Y0067402D01*
X0018203Y0067339D01*
X0018384Y0067271D01*
X0018563Y0067200D01*
X0018741Y0067123D01*
X0018917Y0067043D01*
X0019090Y0066958D01*
X0019262Y0066869D01*
X0019431Y0066776D01*
X0019598Y0066679D01*
X0019763Y0066577D01*
X0019925Y0066472D01*
X0020084Y0066363D01*
X0020241Y0066249D01*
X0020394Y0066132D01*
X0020545Y0066012D01*
X0020693Y0065887D01*
X0020838Y0065759D01*
X0020979Y0065628D01*
X0021118Y0065493D01*
X0021253Y0065354D01*
X0021384Y0065213D01*
X0021512Y0065068D01*
X0021637Y0064920D01*
X0021757Y0064769D01*
X0021874Y0064616D01*
X0021988Y0064459D01*
X0022097Y0064300D01*
X0022202Y0064138D01*
X0022304Y0063973D01*
X0022401Y0063806D01*
X0022494Y0063637D01*
X0022583Y0063465D01*
X0022668Y0063292D01*
X0022748Y0063116D01*
X0022825Y0062938D01*
X0022896Y0062759D01*
X0022964Y0062578D01*
X0023027Y0062395D01*
X0023085Y0062211D01*
X0023139Y0062025D01*
X0023188Y0061838D01*
X0023233Y0061650D01*
X0023273Y0061461D01*
X0023308Y0061271D01*
X0023339Y0061080D01*
X0023365Y0060889D01*
X0023386Y0060697D01*
X0023403Y0060504D01*
X0023415Y0060311D01*
X0023422Y0060118D01*
X0023424Y0059925D01*
X0023422Y0059732D01*
X0023415Y0059539D01*
X0023403Y0059346D01*
X0023386Y0059153D01*
X0023365Y0058961D01*
X0023339Y0058770D01*
X0023308Y0058579D01*
X0023273Y0058389D01*
X0023233Y0058200D01*
X0023188Y0058012D01*
X0023139Y0057825D01*
X0023085Y0057639D01*
X0023027Y0057455D01*
X0022964Y0057272D01*
X0022896Y0057091D01*
X0022825Y0056912D01*
X0022748Y0056734D01*
X0022668Y0056558D01*
X0022583Y0056385D01*
X0022494Y0056213D01*
X0022401Y0056044D01*
X0022304Y0055877D01*
X0022202Y0055712D01*
X0022097Y0055550D01*
X0021988Y0055391D01*
X0021874Y0055234D01*
X0021757Y0055081D01*
X0021637Y0054930D01*
X0021512Y0054782D01*
X0021384Y0054637D01*
X0021253Y0054496D01*
X0021118Y0054357D01*
X0020979Y0054222D01*
X0020838Y0054091D01*
X0020693Y0053963D01*
X0020545Y0053838D01*
X0020394Y0053718D01*
X0020241Y0053601D01*
X0020084Y0053487D01*
X0019925Y0053378D01*
X0019763Y0053273D01*
X0019598Y0053171D01*
X0019431Y0053074D01*
X0019262Y0052981D01*
X0019090Y0052892D01*
X0018917Y0052807D01*
X0018741Y0052727D01*
X0018563Y0052650D01*
X0018384Y0052579D01*
X0018203Y0052511D01*
X0018020Y0052448D01*
X0017836Y0052390D01*
X0017650Y0052336D01*
X0017463Y0052287D01*
X0017275Y0052242D01*
X0017086Y0052202D01*
X0016896Y0052167D01*
X0016705Y0052136D01*
X0016514Y0052110D01*
X0016322Y0052089D01*
X0016129Y0052072D01*
X0015936Y0052060D01*
X0015743Y0052053D01*
X0015550Y0052051D01*
X0015357Y0052053D01*
X0015164Y0052060D01*
X0014971Y0052072D01*
X0014778Y0052089D01*
X0014586Y0052110D01*
X0014395Y0052136D01*
X0014204Y0052167D01*
X0014014Y0052202D01*
X0013825Y0052242D01*
X0013637Y0052287D01*
X0013450Y0052336D01*
X0013264Y0052390D01*
X0013080Y0052448D01*
X0012897Y0052511D01*
X0012716Y0052579D01*
X0012537Y0052650D01*
X0012359Y0052727D01*
X0012183Y0052807D01*
X0012010Y0052892D01*
X0011838Y0052981D01*
X0011669Y0053074D01*
X0011502Y0053171D01*
X0011337Y0053273D01*
X0011175Y0053378D01*
X0011016Y0053487D01*
X0010859Y0053601D01*
X0010706Y0053718D01*
X0010555Y0053838D01*
X0010407Y0053963D01*
X0010262Y0054091D01*
X0010121Y0054222D01*
X0009982Y0054357D01*
X0009847Y0054496D01*
X0009716Y0054637D01*
X0009588Y0054782D01*
X0009463Y0054930D01*
X0009343Y0055081D01*
X0009226Y0055234D01*
X0009112Y0055391D01*
X0009003Y0055550D01*
X0008898Y0055712D01*
X0008796Y0055877D01*
X0008699Y0056044D01*
X0008606Y0056213D01*
X0008517Y0056385D01*
X0008432Y0056558D01*
X0008352Y0056734D01*
X0008275Y0056912D01*
X0008204Y0057091D01*
X0008136Y0057272D01*
X0008073Y0057455D01*
X0008015Y0057639D01*
X0007961Y0057825D01*
X0007912Y0058012D01*
X0007867Y0058200D01*
X0007827Y0058389D01*
X0007792Y0058579D01*
X0007761Y0058770D01*
X0007735Y0058961D01*
X0007714Y0059153D01*
X0007697Y0059346D01*
X0007685Y0059539D01*
X0007678Y0059732D01*
X0007676Y0059925D01*
X0048600Y0048769D02*
X0048600Y0045450D01*
X0048800Y0045450D02*
X0048898Y0045448D01*
X0048996Y0045442D01*
X0049094Y0045433D01*
X0049191Y0045419D01*
X0049288Y0045402D01*
X0049384Y0045381D01*
X0049479Y0045356D01*
X0049573Y0045328D01*
X0049665Y0045295D01*
X0049757Y0045260D01*
X0049847Y0045220D01*
X0049935Y0045178D01*
X0050022Y0045131D01*
X0050106Y0045082D01*
X0050189Y0045029D01*
X0050269Y0044973D01*
X0050348Y0044913D01*
X0050424Y0044851D01*
X0050497Y0044786D01*
X0050568Y0044718D01*
X0050636Y0044647D01*
X0050701Y0044574D01*
X0050763Y0044498D01*
X0050823Y0044419D01*
X0050879Y0044339D01*
X0050932Y0044256D01*
X0050981Y0044172D01*
X0051028Y0044085D01*
X0051070Y0043997D01*
X0051110Y0043907D01*
X0051145Y0043815D01*
X0051178Y0043723D01*
X0051206Y0043629D01*
X0051231Y0043534D01*
X0051252Y0043438D01*
X0051269Y0043341D01*
X0051283Y0043244D01*
X0051292Y0043146D01*
X0051298Y0043048D01*
X0051300Y0042950D01*
X0051298Y0042852D01*
X0051292Y0042754D01*
X0051283Y0042656D01*
X0051269Y0042559D01*
X0051252Y0042462D01*
X0051231Y0042366D01*
X0051206Y0042271D01*
X0051178Y0042177D01*
X0051145Y0042085D01*
X0051110Y0041993D01*
X0051070Y0041903D01*
X0051028Y0041815D01*
X0050981Y0041728D01*
X0050932Y0041644D01*
X0050879Y0041561D01*
X0050823Y0041481D01*
X0050763Y0041402D01*
X0050701Y0041326D01*
X0050636Y0041253D01*
X0050568Y0041182D01*
X0050497Y0041114D01*
X0050424Y0041049D01*
X0050348Y0040987D01*
X0050269Y0040927D01*
X0050189Y0040871D01*
X0050106Y0040818D01*
X0050022Y0040769D01*
X0049935Y0040722D01*
X0049847Y0040680D01*
X0049757Y0040640D01*
X0049665Y0040605D01*
X0049573Y0040572D01*
X0049479Y0040544D01*
X0049384Y0040519D01*
X0049288Y0040498D01*
X0049191Y0040481D01*
X0049094Y0040467D01*
X0048996Y0040458D01*
X0048898Y0040452D01*
X0048800Y0040450D01*
X0048600Y0040450D02*
X0048600Y0036494D01*
X0048601Y0036494D02*
X0048613Y0036424D01*
X0048630Y0036354D01*
X0048650Y0036286D01*
X0048673Y0036218D01*
X0048701Y0036152D01*
X0048732Y0036088D01*
X0048766Y0036026D01*
X0048804Y0035965D01*
X0048844Y0035906D01*
X0048888Y0035850D01*
X0048935Y0035797D01*
X0048985Y0035745D01*
X0049038Y0035697D01*
X0049093Y0035652D01*
X0049150Y0035609D01*
X0049210Y0035570D01*
X0049272Y0035534D01*
X0049335Y0035502D01*
X0049400Y0035473D01*
X0049467Y0035447D01*
X0049535Y0035425D01*
X0049604Y0035407D01*
X0049674Y0035393D01*
X0049745Y0035383D01*
X0049816Y0035376D01*
X0049887Y0035373D01*
X0049958Y0035374D01*
X0050030Y0035379D01*
X0050100Y0035388D01*
X0050100Y0035387D02*
X0083894Y0035387D01*
X0083894Y0035388D02*
X0083964Y0035400D01*
X0084034Y0035417D01*
X0084102Y0035437D01*
X0084169Y0035461D01*
X0084235Y0035488D01*
X0084300Y0035519D01*
X0084362Y0035553D01*
X0084423Y0035591D01*
X0084481Y0035632D01*
X0084538Y0035676D01*
X0084591Y0035723D01*
X0084642Y0035773D01*
X0084691Y0035825D01*
X0084736Y0035880D01*
X0084779Y0035938D01*
X0084818Y0035997D01*
X0084854Y0036059D01*
X0084886Y0036123D01*
X0084915Y0036188D01*
X0084941Y0036254D01*
X0084962Y0036322D01*
X0084981Y0036392D01*
X0084995Y0036461D01*
X0085005Y0036532D01*
X0085012Y0036603D01*
X0085015Y0036674D01*
X0085014Y0036746D01*
X0085009Y0036817D01*
X0085000Y0036888D01*
X0085000Y0036887D02*
X0085000Y0049213D01*
X0084998Y0049289D01*
X0084992Y0049364D01*
X0084983Y0049440D01*
X0084969Y0049515D01*
X0084952Y0049589D01*
X0084931Y0049662D01*
X0084907Y0049734D01*
X0084879Y0049804D01*
X0084847Y0049873D01*
X0084812Y0049941D01*
X0084773Y0050006D01*
X0084731Y0050070D01*
X0084686Y0050131D01*
X0084638Y0050190D01*
X0084587Y0050246D01*
X0084533Y0050300D01*
X0084477Y0050351D01*
X0084418Y0050399D01*
X0084357Y0050444D01*
X0084293Y0050486D01*
X0084228Y0050525D01*
X0084160Y0050560D01*
X0084091Y0050592D01*
X0084021Y0050620D01*
X0083949Y0050644D01*
X0083876Y0050665D01*
X0083802Y0050682D01*
X0083727Y0050696D01*
X0083651Y0050705D01*
X0083576Y0050711D01*
X0083500Y0050713D01*
X0050100Y0050713D01*
X0050019Y0050701D01*
X0049939Y0050686D01*
X0049860Y0050667D01*
X0049782Y0050645D01*
X0049705Y0050618D01*
X0049629Y0050589D01*
X0049555Y0050555D01*
X0049483Y0050518D01*
X0049412Y0050478D01*
X0049344Y0050434D01*
X0049277Y0050387D01*
X0049213Y0050337D01*
X0049152Y0050284D01*
X0049093Y0050228D01*
X0049036Y0050169D01*
X0048983Y0050108D01*
X0048932Y0050044D01*
X0048885Y0049978D01*
X0048841Y0049910D01*
X0048800Y0049840D01*
X0048762Y0049768D01*
X0048728Y0049694D01*
X0048698Y0049618D01*
X0048671Y0049542D01*
X0048648Y0049464D01*
X0048628Y0049385D01*
X0048613Y0049305D01*
X0048601Y0049224D01*
X0048593Y0049144D01*
X0048589Y0049062D01*
X0048588Y0048981D01*
X0048592Y0048900D01*
X0048599Y0048819D01*
X0090097Y0045019D02*
X0090097Y0041081D01*
X0096003Y0041081D02*
X0096003Y0045019D01*
X0115269Y0048331D02*
X0127081Y0048331D01*
X0120176Y0059925D02*
X0120178Y0060118D01*
X0120185Y0060311D01*
X0120197Y0060504D01*
X0120214Y0060697D01*
X0120235Y0060889D01*
X0120261Y0061080D01*
X0120292Y0061271D01*
X0120327Y0061461D01*
X0120367Y0061650D01*
X0120412Y0061838D01*
X0120461Y0062025D01*
X0120515Y0062211D01*
X0120573Y0062395D01*
X0120636Y0062578D01*
X0120704Y0062759D01*
X0120775Y0062938D01*
X0120852Y0063116D01*
X0120932Y0063292D01*
X0121017Y0063465D01*
X0121106Y0063637D01*
X0121199Y0063806D01*
X0121296Y0063973D01*
X0121398Y0064138D01*
X0121503Y0064300D01*
X0121612Y0064459D01*
X0121726Y0064616D01*
X0121843Y0064769D01*
X0121963Y0064920D01*
X0122088Y0065068D01*
X0122216Y0065213D01*
X0122347Y0065354D01*
X0122482Y0065493D01*
X0122621Y0065628D01*
X0122762Y0065759D01*
X0122907Y0065887D01*
X0123055Y0066012D01*
X0123206Y0066132D01*
X0123359Y0066249D01*
X0123516Y0066363D01*
X0123675Y0066472D01*
X0123837Y0066577D01*
X0124002Y0066679D01*
X0124169Y0066776D01*
X0124338Y0066869D01*
X0124510Y0066958D01*
X0124683Y0067043D01*
X0124859Y0067123D01*
X0125037Y0067200D01*
X0125216Y0067271D01*
X0125397Y0067339D01*
X0125580Y0067402D01*
X0125764Y0067460D01*
X0125950Y0067514D01*
X0126137Y0067563D01*
X0126325Y0067608D01*
X0126514Y0067648D01*
X0126704Y0067683D01*
X0126895Y0067714D01*
X0127086Y0067740D01*
X0127278Y0067761D01*
X0127471Y0067778D01*
X0127664Y0067790D01*
X0127857Y0067797D01*
X0128050Y0067799D01*
X0128243Y0067797D01*
X0128436Y0067790D01*
X0128629Y0067778D01*
X0128822Y0067761D01*
X0129014Y0067740D01*
X0129205Y0067714D01*
X0129396Y0067683D01*
X0129586Y0067648D01*
X0129775Y0067608D01*
X0129963Y0067563D01*
X0130150Y0067514D01*
X0130336Y0067460D01*
X0130520Y0067402D01*
X0130703Y0067339D01*
X0130884Y0067271D01*
X0131063Y0067200D01*
X0131241Y0067123D01*
X0131417Y0067043D01*
X0131590Y0066958D01*
X0131762Y0066869D01*
X0131931Y0066776D01*
X0132098Y0066679D01*
X0132263Y0066577D01*
X0132425Y0066472D01*
X0132584Y0066363D01*
X0132741Y0066249D01*
X0132894Y0066132D01*
X0133045Y0066012D01*
X0133193Y0065887D01*
X0133338Y0065759D01*
X0133479Y0065628D01*
X0133618Y0065493D01*
X0133753Y0065354D01*
X0133884Y0065213D01*
X0134012Y0065068D01*
X0134137Y0064920D01*
X0134257Y0064769D01*
X0134374Y0064616D01*
X0134488Y0064459D01*
X0134597Y0064300D01*
X0134702Y0064138D01*
X0134804Y0063973D01*
X0134901Y0063806D01*
X0134994Y0063637D01*
X0135083Y0063465D01*
X0135168Y0063292D01*
X0135248Y0063116D01*
X0135325Y0062938D01*
X0135396Y0062759D01*
X0135464Y0062578D01*
X0135527Y0062395D01*
X0135585Y0062211D01*
X0135639Y0062025D01*
X0135688Y0061838D01*
X0135733Y0061650D01*
X0135773Y0061461D01*
X0135808Y0061271D01*
X0135839Y0061080D01*
X0135865Y0060889D01*
X0135886Y0060697D01*
X0135903Y0060504D01*
X0135915Y0060311D01*
X0135922Y0060118D01*
X0135924Y0059925D01*
X0135922Y0059732D01*
X0135915Y0059539D01*
X0135903Y0059346D01*
X0135886Y0059153D01*
X0135865Y0058961D01*
X0135839Y0058770D01*
X0135808Y0058579D01*
X0135773Y0058389D01*
X0135733Y0058200D01*
X0135688Y0058012D01*
X0135639Y0057825D01*
X0135585Y0057639D01*
X0135527Y0057455D01*
X0135464Y0057272D01*
X0135396Y0057091D01*
X0135325Y0056912D01*
X0135248Y0056734D01*
X0135168Y0056558D01*
X0135083Y0056385D01*
X0134994Y0056213D01*
X0134901Y0056044D01*
X0134804Y0055877D01*
X0134702Y0055712D01*
X0134597Y0055550D01*
X0134488Y0055391D01*
X0134374Y0055234D01*
X0134257Y0055081D01*
X0134137Y0054930D01*
X0134012Y0054782D01*
X0133884Y0054637D01*
X0133753Y0054496D01*
X0133618Y0054357D01*
X0133479Y0054222D01*
X0133338Y0054091D01*
X0133193Y0053963D01*
X0133045Y0053838D01*
X0132894Y0053718D01*
X0132741Y0053601D01*
X0132584Y0053487D01*
X0132425Y0053378D01*
X0132263Y0053273D01*
X0132098Y0053171D01*
X0131931Y0053074D01*
X0131762Y0052981D01*
X0131590Y0052892D01*
X0131417Y0052807D01*
X0131241Y0052727D01*
X0131063Y0052650D01*
X0130884Y0052579D01*
X0130703Y0052511D01*
X0130520Y0052448D01*
X0130336Y0052390D01*
X0130150Y0052336D01*
X0129963Y0052287D01*
X0129775Y0052242D01*
X0129586Y0052202D01*
X0129396Y0052167D01*
X0129205Y0052136D01*
X0129014Y0052110D01*
X0128822Y0052089D01*
X0128629Y0052072D01*
X0128436Y0052060D01*
X0128243Y0052053D01*
X0128050Y0052051D01*
X0127857Y0052053D01*
X0127664Y0052060D01*
X0127471Y0052072D01*
X0127278Y0052089D01*
X0127086Y0052110D01*
X0126895Y0052136D01*
X0126704Y0052167D01*
X0126514Y0052202D01*
X0126325Y0052242D01*
X0126137Y0052287D01*
X0125950Y0052336D01*
X0125764Y0052390D01*
X0125580Y0052448D01*
X0125397Y0052511D01*
X0125216Y0052579D01*
X0125037Y0052650D01*
X0124859Y0052727D01*
X0124683Y0052807D01*
X0124510Y0052892D01*
X0124338Y0052981D01*
X0124169Y0053074D01*
X0124002Y0053171D01*
X0123837Y0053273D01*
X0123675Y0053378D01*
X0123516Y0053487D01*
X0123359Y0053601D01*
X0123206Y0053718D01*
X0123055Y0053838D01*
X0122907Y0053963D01*
X0122762Y0054091D01*
X0122621Y0054222D01*
X0122482Y0054357D01*
X0122347Y0054496D01*
X0122216Y0054637D01*
X0122088Y0054782D01*
X0121963Y0054930D01*
X0121843Y0055081D01*
X0121726Y0055234D01*
X0121612Y0055391D01*
X0121503Y0055550D01*
X0121398Y0055712D01*
X0121296Y0055877D01*
X0121199Y0056044D01*
X0121106Y0056213D01*
X0121017Y0056385D01*
X0120932Y0056558D01*
X0120852Y0056734D01*
X0120775Y0056912D01*
X0120704Y0057091D01*
X0120636Y0057272D01*
X0120573Y0057455D01*
X0120515Y0057639D01*
X0120461Y0057825D01*
X0120412Y0058012D01*
X0120367Y0058200D01*
X0120327Y0058389D01*
X0120292Y0058579D01*
X0120261Y0058770D01*
X0120235Y0058961D01*
X0120214Y0059153D01*
X0120197Y0059346D01*
X0120185Y0059539D01*
X0120178Y0059732D01*
X0120176Y0059925D01*
X0115269Y0036519D02*
X0127081Y0036519D01*
D13*
X0048800Y0033950D03*
D14*
X0117041Y0051086D02*
X0117043Y0051134D01*
X0117049Y0051182D01*
X0117059Y0051229D01*
X0117072Y0051275D01*
X0117090Y0051320D01*
X0117110Y0051364D01*
X0117135Y0051406D01*
X0117163Y0051445D01*
X0117193Y0051482D01*
X0117227Y0051516D01*
X0117264Y0051548D01*
X0117302Y0051577D01*
X0117343Y0051602D01*
X0117386Y0051624D01*
X0117431Y0051642D01*
X0117477Y0051656D01*
X0117524Y0051667D01*
X0117572Y0051674D01*
X0117620Y0051677D01*
X0117668Y0051676D01*
X0117716Y0051671D01*
X0117764Y0051662D01*
X0117810Y0051650D01*
X0117855Y0051633D01*
X0117899Y0051613D01*
X0117941Y0051590D01*
X0117981Y0051563D01*
X0118019Y0051533D01*
X0118054Y0051500D01*
X0118086Y0051464D01*
X0118116Y0051426D01*
X0118142Y0051385D01*
X0118164Y0051342D01*
X0118184Y0051298D01*
X0118199Y0051253D01*
X0118211Y0051206D01*
X0118219Y0051158D01*
X0118223Y0051110D01*
X0118223Y0051062D01*
X0118219Y0051014D01*
X0118211Y0050966D01*
X0118199Y0050919D01*
X0118184Y0050874D01*
X0118164Y0050830D01*
X0118142Y0050787D01*
X0118116Y0050746D01*
X0118086Y0050708D01*
X0118054Y0050672D01*
X0118019Y0050639D01*
X0117981Y0050609D01*
X0117941Y0050582D01*
X0117899Y0050559D01*
X0117855Y0050539D01*
X0117810Y0050522D01*
X0117764Y0050510D01*
X0117716Y0050501D01*
X0117668Y0050496D01*
X0117620Y0050495D01*
X0117572Y0050498D01*
X0117524Y0050505D01*
X0117477Y0050516D01*
X0117431Y0050530D01*
X0117386Y0050548D01*
X0117343Y0050570D01*
X0117302Y0050595D01*
X0117264Y0050624D01*
X0117227Y0050656D01*
X0117193Y0050690D01*
X0117163Y0050727D01*
X0117135Y0050766D01*
X0117110Y0050808D01*
X0117090Y0050852D01*
X0117072Y0050897D01*
X0117059Y0050943D01*
X0117049Y0050990D01*
X0117043Y0051038D01*
X0117041Y0051086D01*
M02*
