%
M48
M72
T01C0.0197
T02C0.0394
T03C0.0984
%
T01
X5805Y3805
X5430Y4180
X5680Y4680
X5055Y4680
X6680Y4930
X7430Y4305
X10055Y3180
X11618Y4930
X11180Y5180
X3430Y4868
X2680Y4868
T02
X1180Y1225
X2180Y1385
X3180Y1225
X4180Y1385
X5180Y1225
X6180Y1385
X7180Y1225
X8180Y1385
X9180Y1225
X10180Y1385
X11180Y1225
X12180Y1385
X10680Y2225
X9680Y2385
X8680Y2225
X7680Y2385
X6680Y2225
X5680Y2385
X4680Y2225
X3680Y2385
X4180Y6180
X5180Y6180
X6180Y6180
X7180Y6180
X8180Y6180
X9180Y6180
X10180Y6180
X11680Y2385
T03
X12805Y5993
X1555Y5993
M30
